<svg width="33" height="33" viewBox="0 0 33 33" fill="none" xmlns="http://www.w3.org/2000/svg">
<path d="M23.6206 26.838V22.3245L25.1251 21.7227L26.5544 22.2492V23.1519H29.4129V26.0105H26.5544C26.5544 26.2612 26.5243 26.8229 26.4039 27.0636C26.2836 27.3044 26.0529 27.4147 25.9526 27.4398H24.072C23.8312 27.4398 23.6708 27.0386 23.6206 26.838Z" fill="white"/>
<path d="M2.63239 32.0283V18.7135H7.97338V29.6963L2.63239 32.0283Z" fill="white"/>
<path d="M7.97338 12.4698H0.676538C0.626388 12.4698 0.480953 12.4999 0.300412 12.6202C0.119872 12.7406 0.0245868 12.9713 -0.000488281 13.0716V17.4346C-0.000488281 17.7957 0.350563 17.9361 0.526088 17.9612H7.97338L10.531 15.1779L7.97338 12.4698Z" fill="white"/>
<path d="M7.97338 11.7175H2.63239V2.54005C2.63239 2.23915 2.7678 1.51698 3.61032 0.734641C4.45284 -0.0477012 5.69155 -0.0677609 6.16798 0.0576144L16.9252 4.57113V26.0103L13.3896 27.3644V9.08464L7.97338 7.88103V11.7175Z" fill="white"/>
<path d="M23.6954 8.18193V5.3986C23.7205 5.2983 23.8158 5.06761 23.9963 4.94725C24.1769 4.82689 24.3725 4.7968 24.4477 4.7968H25.6513C25.7265 4.7968 25.9221 4.82689 26.1027 4.94725C26.2832 5.06761 26.4286 5.2983 26.4788 5.3986V8.18193L25.0495 8.70851L23.6954 8.18193Z" fill="white"/>
<path fill-rule="evenodd" clip-rule="evenodd" d="M17.8279 25.559V4.94725L23.0184 6.97833V8.78373L25.1999 9.46076L27.231 8.78373L32.4216 10.8148V19.6162L27.231 21.7225L25.1999 20.9702L23.0184 21.7225V23.4526L17.8279 25.559ZM20.6112 10.5891V19.9171L23.6954 19.24V11.1909L20.6112 10.5891ZM26.554 18.7135V11.7927L29.563 12.3945V18.0364L26.554 18.7135Z" fill="white"/>
</svg>
